# Blender 4.2.3 LTS
# www.blender.org
mtllib entrada isable home.mtl
o Plane
v -1.604569 3.143898 -2.919853
v 5.658871 3.143898 -2.919853
v 10.102791 -8.915084 -2.919853
v 5.658871 -8.915084 -2.919853
v 6.240995 -9.464333 -2.919853
v -1.604569 -8.915084 -2.919853
v -2.216943 -9.464333 -2.919853
v -5.112992 -8.915084 -2.919853
v 10.102791 3.143899 -2.919853
v 10.102791 3.756270 -2.919853
v -5.112991 3.143898 -2.919853
v -5.112991 3.756271 -2.919853
v -5.112991 4.396383 -2.919853
v 10.102791 4.396383 0.877203
v -5.112991 4.396383 0.877203
v -2.216943 4.396382 5.118683
v -1.604569 4.396382 5.118683
v 5.658871 4.396383 5.118683
v 6.240995 4.396383 5.118683
v 10.102791 4.396383 5.118683
v 10.102791 -8.915084 0.877204
v 10.102791 3.143899 0.877203
v 10.102791 3.756270 0.877203
v 10.102791 3.143899 0.266798
v 10.102791 3.143898 5.118683
v 10.102791 3.756270 5.118683
v 10.102791 4.396383 -2.919853
v 10.102791 4.396383 0.266797
v -5.112991 4.396383 0.266797
v -5.112991 4.396382 5.118683
v -1.604569 4.976094 -2.919853
v -2.216943 4.976094 -2.919853
v 5.658871 4.976094 -2.919853
v 6.240995 4.976094 -2.919853
v 10.102791 4.976095 -2.919853
v -5.112991 4.976094 -2.919853
v -1.604569 4.976094 0.266797
v -2.216943 4.976094 0.266797
v 5.658871 4.976094 0.266797
v 6.240995 4.976094 0.266797
v 10.102791 4.976095 0.266797
v -5.112991 4.976094 0.266797
v -1.604569 4.976094 0.877203
v -2.216943 4.976094 0.877203
v 5.658871 4.976094 0.877203
v 6.240995 4.976094 0.877203
v 10.102791 4.976094 0.877203
v -5.112991 4.976094 0.877203
v -1.604569 4.976094 5.118683
v -2.216943 4.976094 5.118683
v 5.658871 4.976094 5.118683
v 6.240995 4.976094 5.118683
v 10.102791 4.976094 5.118683
v -5.112991 4.976094 5.118683
v -2.216943 3.756271 -3.419853
v -2.216943 3.143898 -3.419853
v -1.604569 3.143898 -3.419853
v -1.604569 3.756271 -3.419853
v 5.658871 3.143898 -3.419853
v 5.658871 3.756271 -3.419853
v 6.240995 3.143898 -3.419853
v 6.240995 3.756271 -3.419853
v 5.658871 -8.915084 -3.419853
v 6.240995 -8.915084 -3.419853
v 10.102791 -8.915084 -3.419853
v 10.102791 3.143899 -3.419853
v 10.102791 -9.464333 -3.419853
v -2.216943 -8.915084 -3.419853
v -1.604569 -8.915084 -3.419853
v -5.112992 -8.915084 -3.419853
v 10.102791 3.756270 -3.419853
v -5.112991 3.143898 -3.419853
v -5.112991 3.756271 -3.419853
v -1.604569 4.396383 -3.419853
v -2.216943 4.396383 -3.419853
v -5.112991 4.396383 -3.419853
v 5.658871 4.396383 -3.419853
v 6.240995 4.396383 -3.419853
v 10.102791 4.396383 -3.419853
v -5.112991 4.976094 -3.419853
v 6.240995 4.976094 -3.419853
v 5.658871 4.976094 -3.419853
v 10.102791 4.976095 -3.419853
v -1.604569 4.976094 -3.419853
v -2.216943 4.976094 -3.419853
v -2.216942 4.396383 0.877203
v -2.216940 4.396383 -2.919853
v -2.216942 4.396383 0.266797
v -1.604568 4.396383 0.877203
v -1.604566 4.396383 -2.919853
v -1.604568 4.396383 0.266797
v -1.604569 3.756271 -2.919853
v -2.216944 -8.915084 -2.919853
v -2.216940 3.756271 -2.919853
v -2.216940 3.143898 -2.919853
v 6.240996 4.396383 -2.919853
v 6.240995 3.143898 -2.919853
v 6.240995 3.756271 -2.919853
v 6.240995 -8.915084 -2.919853
v 5.658871 4.396383 0.877203
v 5.658871 4.396383 -2.919853
v 5.658871 4.396383 0.266797
v 5.658872 3.756271 -2.919853
v 10.102791 -8.915084 0.266798
v 10.102791 3.756270 0.266798
v 10.655931 -8.915084 -2.919853
v 10.655931 3.143899 -2.919853
v 10.655931 -9.464333 -3.419853
v 10.655931 4.396383 -2.919853
v 10.655931 4.396383 -3.419853
v 10.655931 3.756270 -2.919853
v 10.655931 3.756270 -3.419853
v 10.655931 3.143899 -3.419853
v 10.655931 -8.915084 -3.419853
v 10.655931 4.396383 0.877203
v 10.655931 4.396383 5.118683
v 10.655931 -8.915084 0.877203
v 10.655931 3.143898 0.877203
v 10.655931 3.143899 0.266797
v 10.655931 3.756270 0.266797
v 10.655931 -8.915084 0.266797
v 10.655931 3.756270 0.877203
v 10.655931 3.143898 5.118683
v 10.655931 3.756270 5.118683
v 10.655931 4.396383 0.266797
v 10.655931 4.976095 0.266797
v 10.655931 4.976095 -2.919853
v 10.655931 4.976095 -3.419853
v 10.655931 4.976094 0.877203
v 10.655931 4.976094 5.118683
v 10.102791 -9.464333 -2.919853
v 6.240995 -9.464333 -3.419853
v -5.112991 -9.464333 -2.919853
v -2.216943 -9.464333 -3.419853
v -5.112991 -9.464333 -3.419853
v 10.102791 -9.464333 0.877203
v 10.102791 -9.464333 0.266797
v 10.655931 -9.464333 -2.919853
v 10.655931 -9.464333 0.877203
v 10.655931 -9.464333 0.266797
v -1.604569 -9.464333 -3.419853
v 5.658871 -9.464333 -3.419853
v -1.604569 -9.464333 -2.919853
v 5.658871 -9.464333 -2.919853
v 10.102791 -9.968439 -3.419853
v 10.655931 -9.968439 -3.419853
v -5.112991 -9.968439 -2.919853
v -5.112991 -9.968439 -3.419853
v 10.102791 -9.968439 0.879415
v 10.102791 -9.968439 0.266797
v 10.655931 -9.968439 -2.919853
v 10.102791 -9.968439 -2.919853
v 10.655931 -9.968439 0.877203
v -2.216943 -9.968439 -3.419853
v 10.655931 -9.968439 0.266797
v 6.240995 -9.968439 -2.919853
v -2.216943 -9.968439 -2.919853
v 6.240995 -9.968439 -3.419853
v -1.604569 -9.968439 -2.919853
v 5.658871 -9.968439 -2.919853
v -1.604569 -9.968439 -3.419853
v 5.658871 -9.968439 -3.419853
v 10.655931 -9.968439 4.993910
v 10.102791 -9.464333 4.993910
v 6.240995 -9.968439 0.257950
v 6.240995 -9.464333 0.257950
v -5.112991 -9.464333 0.257950
v -2.216943 -9.464333 0.257950
v 5.658871 -9.464333 0.257950
v 5.658871 -9.968439 0.257950
v -1.604569 -9.464333 0.257950
v -5.112991 -9.968439 0.257950
v -2.216943 -9.968439 0.257950
v -1.604569 -9.968439 0.257950
v 10.102791 -9.968439 4.993910
v 10.655931 -9.464333 4.993910
v 6.240995 -9.968439 0.879416
v 6.240995 -9.464333 0.879416
v -5.112991 -9.464333 0.879416
v -2.216943 -9.464333 0.879416
v 5.658871 -9.464333 0.879416
v 5.658871 -9.968439 0.879416
v -1.604569 -9.464333 0.879416
v -5.112991 -9.968439 0.879416
v -2.216943 -9.968439 0.879416
v -1.604569 -9.968439 0.879416
v 6.240995 -9.968439 4.993910
v 6.240995 -9.464333 4.993910
v -5.112991 -9.464333 4.993910
v -2.216943 -9.464333 4.993910
v 5.658871 -9.464333 4.993910
v 5.658871 -9.968439 4.993910
v -1.604570 -9.464333 4.993910
v -5.112990 -9.968439 4.993910
v -2.216943 -9.968439 4.993910
v -1.604570 -9.968439 4.993910
vn 1.0000 -0.0000 -0.0000
vn -1.0000 -0.0000 -0.0000
vn -0.0000 -1.0000 -0.0000
vn -0.0000 -0.0000 -1.0000
vn -0.0000 1.0000 -0.0000
vn -0.0000 -0.0000 1.0000
vn -0.0022 -0.0022 1.0000
vn -0.0003 -0.0022 1.0000
vt 0.000000 0.000000
vt 1.000000 0.000000
vt 1.000000 1.000000
vt 0.000000 1.000000
s 0
f 1/1/1 6/1/1 69/1/1 57/1/1
f 11/1/2 12/1/2 73/1/2 72/1/2
f 2/1/3 1/1/3 57/1/3 59/1/3
f 8/1/2 11/1/2 72/1/2 70/1/2
f 9/1/2 24/1/2 105/1/2 10/1/2
f 67/2/4 65/2/4 114/2/4 108/2/4
f 144/1/2 4/1/2 63/1/2 142/1/2
f 12/1/2 13/1/2 76/1/2 73/1/2
f 41/3/5 47/3/5 129/3/5 126/3/5
f 71/3/4 79/3/4 110/3/4 112/3/4
f 79/3/4 83/3/4 128/3/4 110/3/4
f 53/1/6 20/1/6 116/1/6 130/1/6
f 35/3/5 41/3/5 126/3/5 127/3/5
f 65/2/4 66/2/4 113/2/4 114/2/4
f 13/1/2 29/1/2 42/1/2 36/1/2
f 15/1/2 30/1/2 54/1/2 48/1/2
f 47/3/5 53/3/5 130/3/5 129/3/5
f 26/1/6 25/1/6 123/1/6 124/1/6
f 30/1/6 16/1/6 50/1/6 54/1/6
f 19/1/6 20/1/6 53/1/6 52/1/6
f 66/2/4 71/3/4 112/3/4 113/2/4
f 36/4/5 32/4/5 85/4/5 80/4/5
f 29/1/2 15/1/2 48/1/2 42/1/2
f 18/1/6 19/1/6 52/1/6 51/1/6
f 17/1/6 18/1/6 51/1/6 49/1/6
f 16/1/6 17/1/6 49/1/6 50/1/6
f 36/4/5 42/4/5 38/4/5 32/4/5
f 33/3/5 39/3/5 40/3/5 34/3/5
f 32/4/5 38/4/5 37/3/5 31/3/5
f 34/3/5 40/3/5 41/3/5 35/3/5
f 31/3/5 37/3/5 39/3/5 33/3/5
f 42/4/5 48/4/5 44/4/5 38/4/5
f 39/3/5 45/3/5 46/3/5 40/3/5
f 38/4/5 44/4/5 43/3/5 37/3/5
f 40/3/5 46/3/5 47/3/5 41/3/5
f 37/3/5 43/3/5 45/3/5 39/3/5
f 48/4/5 54/4/5 50/4/5 44/4/5
f 45/3/5 51/3/5 52/3/5 46/3/5
f 44/4/5 50/4/5 49/3/5 43/3/5
f 46/3/5 52/3/5 53/3/5 47/3/5
f 43/3/5 49/3/5 51/3/5 45/3/5
f 34/3/5 35/3/5 83/3/5 81/3/5
f 56/1/4 55/4/4 58/3/4 57/2/4
f 58/3/4 60/3/4 59/2/4 57/2/4
f 60/3/4 62/3/4 61/2/4 59/2/4
f 66/2/4 65/2/4 64/2/4 61/2/4
f 61/2/4 64/2/4 63/2/4 59/2/4
f 64/2/4 132/2/4 142/2/4 63/2/4
f 57/2/4 69/2/4 68/1/4 56/1/4
f 69/2/4 141/2/4 134/1/4 68/1/4
f 134/1/4 135/1/4 70/1/4 68/1/4
f 62/3/4 71/3/4 66/2/4 61/2/4
f 56/1/4 72/1/4 73/4/4 55/4/4
f 58/3/4 74/3/4 77/3/4 60/3/4
f 73/4/4 76/4/4 75/4/4 55/4/4
f 60/3/4 77/3/4 78/3/4 62/3/4
f 62/3/4 78/3/4 79/3/4 71/3/4
f 55/4/4 75/4/4 74/3/4 58/3/4
f 68/1/4 70/1/4 72/1/4 56/1/4
f 65/2/4 67/2/4 132/2/4 64/2/4
f 79/3/4 78/3/4 81/3/4 83/3/4
f 78/3/4 77/3/4 82/3/4 81/3/4
f 77/3/4 74/3/4 84/3/4 82/3/4
f 74/3/4 75/4/4 85/4/4 84/3/4
f 75/4/4 76/4/4 80/4/4 85/4/4
f 32/4/5 31/3/5 84/3/5 85/4/5
f 13/1/2 36/1/2 80/1/2 76/1/2
f 31/3/5 33/3/5 82/3/5 84/3/5
f 6/1/1 143/1/1 141/1/1 69/1/1
f 4/1/2 2/1/2 59/1/2 63/1/2
f 33/3/5 34/3/5 81/3/5 82/3/5
f 133/1/2 8/1/2 70/1/2 135/1/2
f 143/1/6 6/1/6 93/1/6 7/1/6
f 11/1/6 8/1/6 93/1/6 95/1/6
f 4/1/6 144/1/6 5/1/6 99/1/6
f 9/1/6 97/1/6 99/1/6 3/1/6
f 12/1/6 94/1/6 87/1/6 13/1/6
f 28/1/3 102/1/3 101/1/3 96/1/3 27/1/3
f 14/1/3 100/1/3 102/1/3 28/1/3
f 18/1/3 100/1/3 14/1/3 20/1/3 19/1/3
f 11/1/6 95/1/6 94/1/6 12/1/6
f 88/1/3 86/1/3 15/1/3 29/1/3
f 86/1/3 16/1/3 30/1/3 15/1/3
f 87/1/3 88/1/3 29/1/3 13/1/3
f 91/1/3 89/1/3 86/1/3 88/1/3
f 89/1/3 17/1/3 16/1/3 86/1/3
f 92/1/6 1/1/6 2/1/6 103/1/6
f 90/1/6 92/1/6 103/1/6 101/1/6
f 90/1/3 91/1/3 88/1/3 87/1/3
f 95/1/6 93/1/6 6/1/6 1/1/6
f 94/1/6 95/1/6 1/1/6 92/1/6
f 87/1/6 94/1/6 92/1/6 90/1/6
f 7/1/6 93/1/6 8/1/6 133/1/6
f 98/1/6 97/1/6 9/1/6 10/1/6
f 99/1/6 5/1/6 131/1/6 3/1/6
f 96/1/6 98/1/6 10/1/6 27/1/6
f 99/1/6 97/1/6 2/1/6 4/1/6
f 102/1/3 100/1/3 89/1/3 91/1/3
f 100/1/3 18/1/3 17/1/3 89/1/3
f 101/1/3 102/1/3 91/1/3 90/1/3
f 103/1/6 2/1/6 97/1/6 98/1/6
f 101/1/6 103/1/6 98/1/6 96/1/6
f 83/3/5 35/3/5 127/3/5 128/3/5
f 20/1/6 26/1/6 124/1/6 116/1/6
f 106/2/1 138/2/1 108/2/1 114/2/1
f 109/3/1 111/3/1 112/3/1 110/3/1
f 127/3/1 109/3/1 110/3/1 128/3/1
f 111/3/1 120/3/1 119/2/1 107/2/1
f 109/3/1 125/3/1 120/3/1 111/3/1
f 119/2/1 118/2/1 117/2/1 121/2/1
f 125/3/1 115/3/1 122/3/1 120/3/1
f 120/3/1 122/3/1 118/2/1 119/2/1
f 122/3/1 124/3/1 123/2/1 118/2/1
f 106/2/1 121/2/1 140/2/1 138/2/1
f 115/3/1 116/3/1 124/3/1 122/3/1
f 115/3/1 125/3/1 126/3/1 129/3/1
f 111/3/1 107/2/1 113/2/1 112/3/1
f 107/2/1 106/2/1 114/2/1 113/2/1
f 125/3/1 109/3/1 127/3/1 126/3/1
f 116/3/1 115/3/1 129/3/1 130/3/1
f 107/2/1 119/2/1 121/2/1 106/2/1
f 121/2/1 117/2/1 139/2/1 140/2/1
f 10/1/2 105/1/2 28/1/2 27/1/2
f 137/1/2 104/1/2 3/1/2 131/1/2
f 28/1/2 105/1/2 23/1/2 14/1/2
f 104/1/2 24/1/2 9/1/2 3/1/2
f 105/1/2 24/1/2 22/1/2 23/1/2
f 136/1/2 21/1/2 104/1/2 137/1/2
f 21/1/2 22/1/2 24/1/2 104/1/2
f 23/1/2 22/1/2 25/1/2 26/1/2
f 14/1/2 23/1/2 26/1/2 20/1/2
f 136/1/6 139/2/6 117/2/6 21/1/6
f 118/2/6 22/1/6 21/1/6 117/2/6
f 25/1/3 22/1/3 118/2/3 123/2/3
f 138/2/1 140/2/1 155/2/1 151/2/1
f 142/2/4 132/2/4 158/2/4 162/2/4
f 133/1/2 135/1/2 148/1/2 147/1/2
f 140/2/1 139/2/1 153/2/1 155/2/1
f 131/1/5 5/1/5 166/1/5 137/1/5
f 132/2/4 67/2/4 145/2/4 158/2/4
f 159/1/3 157/1/3 154/1/3 161/1/3
f 152/1/3 156/1/3 158/1/3 145/1/3
f 150/1/3 152/1/3 151/1/3 155/1/3
f 157/1/3 147/1/3 148/1/3 154/1/3
f 152/1/3 145/1/3 146/1/3 151/1/3
f 156/1/3 160/1/3 162/1/3 158/1/3
f 149/1/3 150/1/3 155/1/3 153/1/3
f 161/1/3 162/1/3 160/1/3 159/1/3
f 67/2/4 108/2/4 146/2/4 145/2/4
f 134/1/4 141/2/4 161/2/4 154/1/4
f 144/1/5 143/1/5 171/1/5 169/1/5
f 136/1/5 178/1/5 188/1/5 164/1/5
f 108/2/1 138/2/1 151/2/1 146/2/1
f 188/1/6 191/1/6 192/1/6 187/1/6
f 7/1/5 133/1/5 167/1/5 168/1/5
f 135/1/4 134/1/4 154/1/4 148/1/4
f 147/1/3 157/1/3 173/1/3 172/1/3
f 141/1/4 142/1/4 162/1/4 161/1/4
f 144/1/5 142/1/5 141/1/5 143/1/5
f 165/1/3 150/1/3 149/1/3 177/1/3
f 170/1/3 165/1/3 177/1/3 182/1/3
f 171/1/5 168/1/5 180/1/5 183/1/5
f 176/2/7 164/1/7 175/1/7 163/2/7
f 174/1/3 170/1/3 182/1/3 186/1/3
f 133/1/2 147/1/2 172/1/2 167/1/2
f 143/1/5 7/1/5 168/1/5 171/1/5
f 160/1/3 156/1/3 165/1/3 170/1/3
f 157/1/3 159/1/3 174/1/3 173/1/3
f 156/1/3 152/1/3 150/1/3 165/1/3
f 159/1/3 160/1/3 170/1/3 174/1/3
f 5/1/5 144/1/5 169/1/5 166/1/5
f 182/1/3 177/1/3 187/1/3 192/1/3
f 180/1/5 179/1/5 189/1/5 190/1/5
f 186/1/3 182/1/3 192/1/3 196/1/3
f 177/1/3 149/1/3 175/1/3 187/1/3
f 184/1/3 185/1/3 195/1/3 194/1/3
f 169/1/5 171/1/5 183/1/5 181/1/5
f 173/1/3 174/1/3 186/1/3 185/1/3
f 137/1/5 166/1/5 178/1/5 136/1/5
f 172/1/3 173/1/3 185/1/3 184/1/3
f 166/1/5 169/1/5 181/1/5 178/1/5
f 167/1/2 172/1/2 184/1/2 179/1/2
f 168/1/5 167/1/5 179/1/5 180/1/5
f 164/1/8 188/1/8 187/1/8 175/1/8
f 193/1/6 190/1/6 195/1/6 196/1/6
f 191/1/6 193/1/6 196/1/6 192/1/6
f 190/1/6 189/1/6 194/1/6 195/1/6
f 185/1/3 186/1/3 196/1/3 195/1/3
f 181/1/5 183/1/5 193/1/5 191/1/5
f 179/1/2 184/1/2 194/1/2 189/1/2
f 178/1/5 181/1/5 191/1/5 188/1/5
f 139/2/5 136/1/5 164/1/5 176/2/5
f 183/1/5 180/1/5 190/1/5 193/1/5
f 153/2/1 139/2/1 176/2/1 163/2/1
f 149/1/3 153/1/3 163/1/3 175/1/3
