# Blender 4.2.3 LTS
# www.blender.org
mtllib ESPEJOS_SEMILUNA.mtl
o espejoredondo2
v 3.504753 1.498641 0.998724
v 3.501443 1.499129 0.995414
v 3.503486 1.498678 0.998472
v 3.502413 1.498784 0.997755
v 3.501695 1.498942 0.996680
v 3.501443 1.445957 0.979402
v 3.504753 1.444692 0.982478
v 3.501695 1.445473 0.980579
v 3.502413 1.445063 0.981577
v 3.503486 1.444788 0.982244
v 3.501443 1.396811 0.953325
v 3.504753 1.394973 0.956097
v 3.501695 1.396108 0.954386
v 3.502413 1.395511 0.955285
v 3.503486 1.395113 0.955886
v 3.501443 1.353737 0.918232
v 3.504753 1.351393 0.920593
v 3.501695 1.352840 0.919136
v 3.502413 1.352080 0.919902
v 3.503486 1.351571 0.920413
v 3.501443 1.318388 0.875474
v 3.504753 1.315628 0.877331
v 3.501695 1.317332 0.876185
v 3.502413 1.316437 0.876787
v 3.503486 1.315838 0.877190
v 3.501443 1.292123 0.826694
v 3.504753 1.289052 0.827975
v 3.501695 1.290948 0.827184
v 3.502413 1.289952 0.827600
v 3.503486 1.289286 0.827877
v 3.501443 1.275949 0.773766
v 3.504753 1.272687 0.774420
v 3.501695 1.274701 0.774016
v 3.502413 1.273643 0.774228
v 3.503486 1.272936 0.774370
v 3.501443 1.270488 0.718724
v 3.504753 1.267161 0.718724
v 3.501695 1.269215 0.718724
v 3.502413 1.268136 0.718724
v 3.503486 1.267415 0.718724
v 3.501443 1.275949 0.663682
v 3.504753 1.272687 0.663029
v 3.501695 1.274701 0.663432
v 3.502413 1.273643 0.663220
v 3.503486 1.272936 0.663078
v 3.501443 1.292123 0.610754
v 3.504753 1.289052 0.609474
v 3.501695 1.290948 0.610264
v 3.502413 1.289952 0.609849
v 3.503486 1.289286 0.609571
v 3.501443 1.318388 0.561974
v 3.504753 1.315628 0.560117
v 3.501695 1.317332 0.561263
v 3.502413 1.316437 0.560661
v 3.503486 1.315838 0.560258
v 3.501443 1.353737 0.519216
v 3.504753 1.351393 0.516855
v 3.501695 1.352840 0.518313
v 3.502413 1.352080 0.517547
v 3.503486 1.351571 0.517035
v 3.501443 1.396812 0.484124
v 3.504753 1.394973 0.481352
v 3.501695 1.396108 0.483063
v 3.502413 1.395511 0.482163
v 3.503486 1.395113 0.481563
v 3.501443 1.445957 0.458046
v 3.504753 1.444692 0.454970
v 3.501695 1.445473 0.456869
v 3.502413 1.445063 0.455871
v 3.503486 1.444788 0.455204
v 3.501443 1.499129 0.442035
v 3.504753 1.498641 0.438724
v 3.501695 1.498942 0.440768
v 3.502413 1.498784 0.439694
v 3.503486 1.498678 0.438976
v 3.504753 2.267162 0.998724
v 3.501443 2.263851 0.995414
v 3.503486 2.266910 0.998472
v 3.502413 2.266192 0.997755
v 3.501695 2.265118 0.996680
v 3.501443 2.263851 0.442035
v 3.504753 2.267162 0.438724
v 3.501695 2.265118 0.440768
v 3.502413 2.266192 0.439694
v 3.503486 2.266910 0.438976
v 3.509758 1.444692 0.982478
v 3.509758 1.498641 0.998724
v 3.509758 1.394973 0.956097
v 3.509758 1.351393 0.920593
v 3.509758 1.315628 0.877331
v 3.509758 1.289052 0.827975
v 3.509758 1.272687 0.774420
v 3.509758 1.267161 0.718724
v 3.509758 1.272687 0.663029
v 3.509758 1.289052 0.609474
v 3.509758 1.315628 0.560117
v 3.509758 1.351393 0.516855
v 3.509758 1.394973 0.481352
v 3.509758 1.444692 0.454970
v 3.509758 1.498641 0.438724
v 3.509758 2.267162 0.998724
v 3.509758 2.267162 0.438724
v 3.509758 1.450970 0.967214
v 3.509758 1.501061 0.982298
v 3.509758 1.404097 0.942343
v 3.509758 1.363022 0.908880
v 3.509758 1.329322 0.868115
v 3.509758 1.304287 0.821619
v 3.509758 1.288873 0.771177
v 3.509758 1.283669 0.718724
v 3.509758 1.288873 0.666271
v 3.509758 1.304287 0.615829
v 3.509758 1.329322 0.569333
v 3.509758 1.363022 0.528569
v 3.509758 1.404097 0.495106
v 3.509758 1.450970 0.470235
v 3.509758 1.501061 0.455151
v 3.509758 2.250735 0.982298
v 3.509758 2.250735 0.455151
v 3.529436 1.450970 0.967214
v 3.529436 1.501061 0.982298
v 3.529436 1.404097 0.942343
v 3.529436 1.363022 0.908880
v 3.529436 1.329322 0.868115
v 3.529436 1.304287 0.821619
v 3.529436 1.288873 0.771177
v 3.529436 1.283669 0.718724
v 3.529436 1.288873 0.666271
v 3.529436 1.304287 0.615829
v 3.529436 1.329322 0.569333
v 3.529436 1.363022 0.528569
v 3.529436 1.404097 0.495106
v 3.529436 1.450970 0.470235
v 3.529436 1.501061 0.455151
v 3.529436 2.250735 0.982298
v 3.529436 2.250735 0.455151
v 3.529436 1.461735 0.941036
v 3.529436 1.505210 0.954127
v 3.529436 1.419745 0.918755
v 3.529436 1.382966 0.888792
v 3.529436 1.352806 0.852311
v 3.529436 1.330412 0.810720
v 3.529436 1.316630 0.765616
v 3.529436 1.311977 0.718724
v 3.529436 1.316630 0.671832
v 3.529436 1.330412 0.626729
v 3.529436 1.352807 0.585138
v 3.529436 1.382966 0.548656
v 3.529436 1.419745 0.518693
v 3.529436 1.461735 0.496413
v 3.529436 1.505210 0.483321
v 3.529436 2.222565 0.954127
v 3.529436 2.222565 0.483321
vn -0.0000 -0.9951 0.0987
vn -0.0000 -0.0000 -1.0000
vn -0.0000 -0.9951 -0.0987
vn -0.0000 -0.2883 0.9575
vn -0.0000 -0.9563 -0.2922
vn -0.0000 -0.4687 0.8833
vn -0.0000 1.0000 -0.0000
vn -0.0000 -0.8805 -0.4741
vn -0.0000 -0.6316 0.7753
vn -0.0000 -0.7707 -0.6372
vn -0.0000 -0.7707 0.6372
vn -0.0000 -0.6316 -0.7753
vn -0.0000 -0.8805 0.4741
vn -0.0000 -0.4687 -0.8834
vn -0.0000 -0.9563 0.2922
vn -0.0000 -0.2883 -0.9575
vn -0.0000 -0.0000 1.0000
vn -0.1951 -0.2828 0.9391
vn -0.5556 -0.2397 0.7962
vn -0.8315 -0.1602 0.5320
vn -0.9808 -0.0563 0.1868
vn -0.1951 -0.4597 0.8664
vn -0.5556 -0.3897 0.7345
vn -0.8315 -0.2604 0.4908
vn -0.9808 -0.0914 0.1723
vn -0.1951 -0.6195 0.7604
vn -0.5556 -0.5252 0.6446
vn -0.8315 -0.3509 0.4307
vn -0.9808 -0.1232 0.1513
vn -0.1951 -0.7559 0.6249
vn -0.5556 -0.6408 0.5298
vn -0.8315 -0.4282 0.3540
vn -0.9808 -0.1504 0.1243
vn -0.1951 -0.8636 0.4650
vn -0.5556 -0.7321 0.3942
vn -0.8315 -0.4892 0.2634
vn -0.9808 -0.1718 0.0925
vn -0.1951 -0.9380 0.2866
vn -0.5556 -0.7952 0.2430
vn -0.8315 -0.5313 0.1624
vn -0.9808 -0.1866 0.0570
vn -0.1951 -0.9760 0.0968
vn -0.5556 -0.8274 0.0821
vn -0.8315 -0.5529 0.0549
vn -0.9808 -0.1941 0.0193
vn -0.1951 -0.9760 -0.0968
vn -0.5556 -0.8274 -0.0821
vn -0.8315 -0.5529 -0.0549
vn -0.9808 -0.1941 -0.0193
vn -0.1951 -0.9380 -0.2866
vn -0.5556 -0.7952 -0.2430
vn -0.8315 -0.5313 -0.1624
vn -0.9808 -0.1866 -0.0570
vn -0.1951 -0.8636 -0.4650
vn -0.5556 -0.7321 -0.3942
vn -0.8315 -0.4892 -0.2634
vn -0.9808 -0.1718 -0.0925
vn -0.1951 -0.7559 -0.6249
vn -0.5556 -0.6408 -0.5298
vn -0.8315 -0.4282 -0.3540
vn -0.9808 -0.1504 -0.1243
vn -0.1951 -0.6195 -0.7604
vn -0.5556 -0.5252 -0.6446
vn -0.8315 -0.3509 -0.4307
vn -0.9808 -0.1232 -0.1512
vn -0.1951 -0.4597 -0.8664
vn -0.5556 -0.3897 -0.7345
vn -0.8315 -0.2604 -0.4908
vn -0.9808 -0.0914 -0.1723
vn -0.1951 -0.2828 -0.9391
vn -0.5556 -0.2398 -0.7962
vn -0.8315 -0.1602 -0.5320
vn -0.9808 -0.0563 -0.1868
vn -0.1951 -0.0000 0.9808
vn -0.5556 -0.0000 0.8315
vn -0.8315 -0.0000 0.5556
vn -0.9808 -0.0000 0.1951
vn -0.1951 -0.0000 -0.9808
vn -0.5556 -0.0000 -0.8315
vn -0.8315 -0.0000 -0.5556
vn -0.9808 -0.0000 -0.1951
vn -0.1951 0.9808 -0.0000
vn -0.5556 0.8314 -0.0000
vn -0.8315 0.5556 -0.0000
vn -0.9808 0.1951 -0.0000
vn -1.0000 -0.0000 -0.0000
vn 1.0000 -0.0000 -0.0000
vt 0.000000 0.000000
s 0
usemtl espejo
f 37/1/1 93/1/1 92/1/1 32/1/1
f 82/1/2 102/1/2 100/1/2 72/1/2
f 42/1/3 94/1/3 93/1/3 37/1/3
f 7/1/4 86/1/4 87/1/4 1/1/4
f 47/1/5 95/1/5 94/1/5 42/1/5
f 12/1/6 88/1/6 86/1/6 7/1/6
f 76/1/7 101/1/7 102/1/7 82/1/7
f 52/1/8 96/1/8 95/1/8 47/1/8
f 17/1/9 89/1/9 88/1/9 12/1/9
f 57/1/10 97/1/10 96/1/10 52/1/10
f 22/1/11 90/1/11 89/1/11 17/1/11
f 62/1/12 98/1/12 97/1/12 57/1/12
f 27/1/13 91/1/13 90/1/13 22/1/13
f 67/1/14 99/1/14 98/1/14 62/1/14
f 32/1/15 92/1/15 91/1/15 27/1/15
f 72/1/16 100/1/16 99/1/16 67/1/16
f 1/1/17 87/1/17 101/1/17 76/1/17
f 7/1/18 1/1/18 3/1/18 10/1/18
f 10/1/19 3/1/19 4/1/19 9/1/19
f 9/1/20 4/1/20 5/1/20 8/1/20
f 8/1/21 5/1/21 2/1/21 6/1/21
f 12/1/22 7/1/22 10/1/22 15/1/22
f 15/1/23 10/1/23 9/1/23 14/1/23
f 14/1/24 9/1/24 8/1/24 13/1/24
f 13/1/25 8/1/25 6/1/25 11/1/25
f 17/1/26 12/1/26 15/1/26 20/1/26
f 20/1/27 15/1/27 14/1/27 19/1/27
f 19/1/28 14/1/28 13/1/28 18/1/28
f 18/1/29 13/1/29 11/1/29 16/1/29
f 22/1/30 17/1/30 20/1/30 25/1/30
f 25/1/31 20/1/31 19/1/31 24/1/31
f 24/1/32 19/1/32 18/1/32 23/1/32
f 23/1/33 18/1/33 16/1/33 21/1/33
f 27/1/34 22/1/34 25/1/34 30/1/34
f 30/1/35 25/1/35 24/1/35 29/1/35
f 29/1/36 24/1/36 23/1/36 28/1/36
f 28/1/37 23/1/37 21/1/37 26/1/37
f 32/1/38 27/1/38 30/1/38 35/1/38
f 35/1/39 30/1/39 29/1/39 34/1/39
f 34/1/40 29/1/40 28/1/40 33/1/40
f 33/1/41 28/1/41 26/1/41 31/1/41
f 37/1/42 32/1/42 35/1/42 40/1/42
f 40/1/43 35/1/43 34/1/43 39/1/43
f 39/1/44 34/1/44 33/1/44 38/1/44
f 38/1/45 33/1/45 31/1/45 36/1/45
f 42/1/46 37/1/46 40/1/46 45/1/46
f 45/1/47 40/1/47 39/1/47 44/1/47
f 44/1/48 39/1/48 38/1/48 43/1/48
f 43/1/49 38/1/49 36/1/49 41/1/49
f 47/1/50 42/1/50 45/1/50 50/1/50
f 50/1/51 45/1/51 44/1/51 49/1/51
f 49/1/52 44/1/52 43/1/52 48/1/52
f 48/1/53 43/1/53 41/1/53 46/1/53
f 52/1/54 47/1/54 50/1/54 55/1/54
f 55/1/55 50/1/55 49/1/55 54/1/55
f 54/1/56 49/1/56 48/1/56 53/1/56
f 53/1/57 48/1/57 46/1/57 51/1/57
f 57/1/58 52/1/58 55/1/58 60/1/58
f 60/1/59 55/1/59 54/1/59 59/1/59
f 59/1/60 54/1/60 53/1/60 58/1/60
f 58/1/61 53/1/61 51/1/61 56/1/61
f 62/1/62 57/1/62 60/1/62 65/1/62
f 65/1/63 60/1/63 59/1/63 64/1/63
f 64/1/64 59/1/64 58/1/64 63/1/64
f 63/1/65 58/1/65 56/1/65 61/1/65
f 67/1/66 62/1/66 65/1/66 70/1/66
f 70/1/67 65/1/67 64/1/67 69/1/67
f 69/1/68 64/1/68 63/1/68 68/1/68
f 68/1/69 63/1/69 61/1/69 66/1/69
f 72/1/70 67/1/70 70/1/70 75/1/70
f 75/1/71 70/1/71 69/1/71 74/1/71
f 74/1/72 69/1/72 68/1/72 73/1/72
f 73/1/73 68/1/73 66/1/73 71/1/73
f 1/1/74 76/1/74 78/1/74 3/1/74
f 3/1/75 78/1/75 79/1/75 4/1/75
f 4/1/76 79/1/76 80/1/76 5/1/76
f 5/1/77 80/1/77 77/1/77 2/1/77
f 82/1/78 72/1/78 75/1/78 85/1/78
f 85/1/79 75/1/79 74/1/79 84/1/79
f 84/1/80 74/1/80 73/1/80 83/1/80
f 83/1/81 73/1/81 71/1/81 81/1/81
f 76/1/82 82/1/82 85/1/82 78/1/82
f 78/1/83 85/1/83 84/1/83 79/1/83
f 79/1/84 84/1/84 83/1/84 80/1/84
f 80/1/85 83/1/85 81/1/85 77/1/85
f 6/1/86 2/1/86 77/1/86 81/1/86 71/1/86 66/1/86 61/1/86 56/1/86 51/1/86 46/1/86 41/1/86 36/1/86 31/1/86 26/1/86 21/1/86 16/1/86 11/1/86
f 103/1/87 104/1/87 87/1/87 86/1/87
f 105/1/87 103/1/87 86/1/87 88/1/87
f 106/1/87 105/1/87 88/1/87 89/1/87
f 107/1/87 106/1/87 89/1/87 90/1/87
f 108/1/87 107/1/87 90/1/87 91/1/87
f 109/1/87 108/1/87 91/1/87 92/1/87
f 110/1/87 109/1/87 92/1/87 93/1/87
f 111/1/87 110/1/87 93/1/87 94/1/87
f 112/1/87 111/1/87 94/1/87 95/1/87
f 113/1/87 112/1/87 95/1/87 96/1/87
f 114/1/87 113/1/87 96/1/87 97/1/87
f 115/1/87 114/1/87 97/1/87 98/1/87
f 116/1/87 115/1/87 98/1/87 99/1/87
f 117/1/87 116/1/87 99/1/87 100/1/87
f 104/1/87 118/1/87 101/1/87 87/1/87
f 119/1/87 117/1/87 100/1/87 102/1/87
f 118/1/87 119/1/87 102/1/87 101/1/87
f 119/1/7 118/1/7 135/1/7 136/1/7
f 152/1/87 153/1/87 136/1/87 135/1/87
usemtl leds
f 107/1/13 108/1/13 125/1/13 124/1/13
f 114/1/12 115/1/12 132/1/12 131/1/12
f 106/1/11 107/1/11 124/1/11 123/1/11
f 113/1/10 114/1/10 131/1/10 130/1/10
f 105/1/9 106/1/9 123/1/9 122/1/9
f 112/1/8 113/1/8 130/1/8 129/1/8
f 103/1/6 105/1/6 122/1/6 120/1/6
f 111/1/5 112/1/5 129/1/5 128/1/5
f 117/1/2 119/1/2 136/1/2 134/1/2
f 104/1/4 103/1/4 120/1/4 121/1/4
f 110/1/3 111/1/3 128/1/3 127/1/3
f 118/1/17 104/1/17 121/1/17 135/1/17
f 109/1/1 110/1/1 127/1/1 126/1/1
f 116/1/16 117/1/16 134/1/16 133/1/16
f 108/1/15 109/1/15 126/1/15 125/1/15
f 115/1/14 116/1/14 133/1/14 132/1/14
f 137/1/87 138/1/87 121/1/87 120/1/87
f 139/1/87 137/1/87 120/1/87 122/1/87
f 140/1/87 139/1/87 122/1/87 123/1/87
f 141/1/87 140/1/87 123/1/87 124/1/87
f 142/1/87 141/1/87 124/1/87 125/1/87
f 143/1/87 142/1/87 125/1/87 126/1/87
f 144/1/87 143/1/87 126/1/87 127/1/87
f 145/1/87 144/1/87 127/1/87 128/1/87
f 146/1/87 145/1/87 128/1/87 129/1/87
f 147/1/87 146/1/87 129/1/87 130/1/87
f 148/1/87 147/1/87 130/1/87 131/1/87
f 149/1/87 148/1/87 131/1/87 132/1/87
f 150/1/87 149/1/87 132/1/87 133/1/87
f 151/1/87 150/1/87 133/1/87 134/1/87
f 138/1/87 152/1/87 135/1/87 121/1/87
f 153/1/87 151/1/87 134/1/87 136/1/87
usemtl Material
f 137/1/87 139/1/87 140/1/87 141/1/87 142/1/87 143/1/87 144/1/87 145/1/87 146/1/87 147/1/87 148/1/87 149/1/87 150/1/87 151/1/87 153/1/87 152/1/87 138/1/87
o espejoredondo2.001
v 3.504753 1.498641 0.274445
v 3.501443 1.499129 0.271135
v 3.503486 1.498678 0.274193
v 3.502413 1.498784 0.273475
v 3.501695 1.498942 0.272401
v 3.501443 1.445957 0.255123
v 3.504753 1.444692 0.258199
v 3.501695 1.445473 0.256300
v 3.502413 1.445063 0.257298
v 3.503486 1.444788 0.257965
v 3.501443 1.396811 0.229046
v 3.504753 1.394973 0.231818
v 3.501695 1.396108 0.230106
v 3.502413 1.395511 0.231006
v 3.503486 1.395113 0.231607
v 3.501443 1.353737 0.193953
v 3.504753 1.351393 0.196314
v 3.501695 1.352840 0.194857
v 3.502413 1.352080 0.195623
v 3.503486 1.351571 0.196134
v 3.501443 1.318388 0.151195
v 3.504753 1.315628 0.153052
v 3.501695 1.317332 0.151906
v 3.502413 1.316437 0.152508
v 3.503486 1.315838 0.152911
v 3.501443 1.292123 0.102415
v 3.504753 1.289052 0.103696
v 3.501695 1.290948 0.102905
v 3.502413 1.289952 0.103321
v 3.503486 1.289286 0.103598
v 3.501443 1.275949 0.049487
v 3.504753 1.272687 0.050141
v 3.501695 1.274701 0.049737
v 3.502413 1.273643 0.049949
v 3.503486 1.272936 0.050091
v 3.501443 1.270488 -0.005555
v 3.504753 1.267161 -0.005555
v 3.501695 1.269215 -0.005555
v 3.502413 1.268136 -0.005555
v 3.503486 1.267415 -0.005555
v 3.501443 1.275949 -0.060597
v 3.504753 1.272687 -0.061250
v 3.501695 1.274701 -0.060847
v 3.502413 1.273643 -0.061059
v 3.503486 1.272936 -0.061201
v 3.501443 1.292123 -0.113525
v 3.504753 1.289052 -0.114805
v 3.501695 1.290948 -0.114015
v 3.502413 1.289952 -0.114430
v 3.503486 1.289286 -0.114708
v 3.501443 1.318388 -0.162305
v 3.504753 1.315628 -0.164162
v 3.501695 1.317332 -0.163016
v 3.502413 1.316437 -0.163618
v 3.503486 1.315838 -0.164021
v 3.501443 1.353737 -0.205063
v 3.504753 1.351393 -0.207424
v 3.501695 1.352840 -0.205966
v 3.502413 1.352080 -0.206732
v 3.503486 1.351571 -0.207244
v 3.501443 1.396812 -0.240156
v 3.504753 1.394973 -0.242927
v 3.501695 1.396108 -0.241216
v 3.502413 1.395511 -0.242116
v 3.503486 1.395113 -0.242716
v 3.501443 1.445957 -0.266233
v 3.504753 1.444692 -0.269309
v 3.501695 1.445473 -0.267410
v 3.502413 1.445063 -0.268408
v 3.503486 1.444788 -0.269075
v 3.501443 1.499129 -0.282244
v 3.504753 1.498641 -0.285555
v 3.501695 1.498942 -0.283511
v 3.502413 1.498784 -0.284585
v 3.503486 1.498678 -0.285303
v 3.504753 2.267162 0.274445
v 3.501443 2.263851 0.271135
v 3.503486 2.266910 0.274193
v 3.502413 2.266192 0.273475
v 3.501695 2.265118 0.272401
v 3.501443 2.263851 -0.282244
v 3.504753 2.267162 -0.285555
v 3.501695 2.265118 -0.283511
v 3.502413 2.266192 -0.284585
v 3.503486 2.266910 -0.285303
v 3.509758 1.444692 0.258199
v 3.509758 1.498641 0.274445
v 3.509758 1.394973 0.231818
v 3.509758 1.351393 0.196314
v 3.509758 1.315628 0.153052
v 3.509758 1.289052 0.103696
v 3.509758 1.272687 0.050141
v 3.509758 1.267161 -0.005555
v 3.509758 1.272687 -0.061250
v 3.509758 1.289052 -0.114805
v 3.509758 1.315628 -0.164162
v 3.509758 1.351393 -0.207424
v 3.509758 1.394973 -0.242927
v 3.509758 1.444692 -0.269309
v 3.509758 1.498641 -0.285555
v 3.509758 2.267162 0.274445
v 3.509758 2.267162 -0.285555
v 3.509758 1.450970 0.242935
v 3.509758 1.501061 0.258019
v 3.509758 1.404097 0.218064
v 3.509758 1.363022 0.184601
v 3.509758 1.329322 0.143836
v 3.509758 1.304287 0.097340
v 3.509758 1.288873 0.046898
v 3.509758 1.283669 -0.005555
v 3.509758 1.288873 -0.058008
v 3.509758 1.304287 -0.108450
v 3.509758 1.329322 -0.154946
v 3.509758 1.363022 -0.195710
v 3.509758 1.404097 -0.229173
v 3.509758 1.450970 -0.254044
v 3.509758 1.501061 -0.269129
v 3.509758 2.250735 0.258019
v 3.509758 2.250735 -0.269129
v 3.529436 1.450970 0.242935
v 3.529436 1.501061 0.258019
v 3.529436 1.404097 0.218064
v 3.529436 1.363022 0.184601
v 3.529436 1.329322 0.143836
v 3.529436 1.304287 0.097340
v 3.529436 1.288873 0.046898
v 3.529436 1.283669 -0.005555
v 3.529436 1.288873 -0.058008
v 3.529436 1.304287 -0.108450
v 3.529436 1.329322 -0.154946
v 3.529436 1.363022 -0.195710
v 3.529436 1.404097 -0.229173
v 3.529436 1.450970 -0.254044
v 3.529436 1.501061 -0.269129
v 3.529436 2.250735 0.258019
v 3.529436 2.250735 -0.269129
v 3.529436 1.461735 0.216757
v 3.529436 1.505210 0.229848
v 3.529436 1.419745 0.194476
v 3.529436 1.382966 0.164513
v 3.529436 1.352806 0.128032
v 3.529436 1.330412 0.086441
v 3.529436 1.316630 0.041337
v 3.529436 1.311977 -0.005555
v 3.529436 1.316630 -0.052447
v 3.529436 1.330412 -0.097550
v 3.529436 1.352807 -0.139141
v 3.529436 1.382966 -0.175623
v 3.529436 1.419745 -0.205586
v 3.529436 1.461735 -0.227866
v 3.529436 1.505210 -0.240958
v 3.529436 2.222565 0.229848
v 3.529436 2.222565 -0.240958
vn -0.0000 -0.9951 0.0987
vn -0.0000 -0.0000 -1.0000
vn -0.0000 -0.9951 -0.0987
vn -0.0000 -0.2883 0.9575
vn -0.0000 -0.9563 -0.2922
vn -0.0000 -0.4687 0.8833
vn -0.0000 1.0000 -0.0000
vn -0.0000 -0.8805 -0.4741
vn -0.0000 -0.6316 0.7753
vn -0.0000 -0.7707 -0.6372
vn -0.0000 -0.7707 0.6372
vn -0.0000 -0.6316 -0.7753
vn -0.0000 -0.8805 0.4741
vn -0.0000 -0.4687 -0.8834
vn -0.0000 -0.9563 0.2922
vn -0.0000 -0.2883 -0.9575
vn -0.0000 -0.0000 1.0000
vn -0.1951 -0.2828 0.9391
vn -0.5556 -0.2397 0.7962
vn -0.8315 -0.1602 0.5320
vn -0.9808 -0.0563 0.1868
vn -0.1951 -0.4597 0.8664
vn -0.5556 -0.3897 0.7345
vn -0.8315 -0.2604 0.4908
vn -0.9808 -0.0914 0.1723
vn -0.1951 -0.6195 0.7604
vn -0.5556 -0.5252 0.6446
vn -0.8315 -0.3509 0.4307
vn -0.9808 -0.1232 0.1513
vn -0.1951 -0.7559 0.6249
vn -0.5556 -0.6408 0.5298
vn -0.8315 -0.4282 0.3540
vn -0.9808 -0.1504 0.1243
vn -0.1951 -0.8636 0.4650
vn -0.5556 -0.7321 0.3942
vn -0.8315 -0.4892 0.2634
vn -0.9808 -0.1718 0.0925
vn -0.1951 -0.9380 0.2866
vn -0.5556 -0.7952 0.2430
vn -0.8315 -0.5313 0.1624
vn -0.9808 -0.1866 0.0570
vn -0.1951 -0.9760 0.0968
vn -0.5556 -0.8274 0.0821
vn -0.8315 -0.5529 0.0549
vn -0.9808 -0.1941 0.0193
vn -0.1951 -0.9760 -0.0968
vn -0.5556 -0.8274 -0.0821
vn -0.8315 -0.5529 -0.0549
vn -0.9808 -0.1941 -0.0193
vn -0.1951 -0.9380 -0.2866
vn -0.5556 -0.7952 -0.2430
vn -0.8315 -0.5313 -0.1624
vn -0.9808 -0.1866 -0.0570
vn -0.1951 -0.8636 -0.4650
vn -0.5556 -0.7321 -0.3942
vn -0.8315 -0.4892 -0.2634
vn -0.9808 -0.1718 -0.0925
vn -0.1951 -0.7559 -0.6249
vn -0.5556 -0.6408 -0.5298
vn -0.8315 -0.4282 -0.3540
vn -0.9808 -0.1504 -0.1243
vn -0.1951 -0.6195 -0.7604
vn -0.5556 -0.5252 -0.6446
vn -0.8315 -0.3509 -0.4307
vn -0.9808 -0.1232 -0.1512
vn -0.1951 -0.4597 -0.8664
vn -0.5556 -0.3897 -0.7345
vn -0.8315 -0.2604 -0.4908
vn -0.9808 -0.0914 -0.1723
vn -0.1951 -0.2828 -0.9391
vn -0.5556 -0.2398 -0.7962
vn -0.8315 -0.1602 -0.5320
vn -0.9808 -0.0563 -0.1868
vn -0.1951 -0.0000 0.9808
vn -0.5556 -0.0000 0.8315
vn -0.8315 -0.0000 0.5556
vn -0.9808 -0.0000 0.1951
vn -0.1951 -0.0000 -0.9808
vn -0.5556 -0.0000 -0.8315
vn -0.8315 -0.0000 -0.5556
vn -0.9808 -0.0000 -0.1951
vn -0.1951 0.9808 -0.0000
vn -0.5556 0.8314 -0.0000
vn -0.8315 0.5556 -0.0000
vn -0.9808 0.1951 -0.0000
vn -1.0000 -0.0000 -0.0000
vn 1.0000 -0.0000 -0.0000
vt 0.000000 0.000000
s 0
usemtl espejo
f 190/2/88 246/2/88 245/2/88 185/2/88
f 235/2/89 255/2/89 253/2/89 225/2/89
f 195/2/90 247/2/90 246/2/90 190/2/90
f 160/2/91 239/2/91 240/2/91 154/2/91
f 200/2/92 248/2/92 247/2/92 195/2/92
f 165/2/93 241/2/93 239/2/93 160/2/93
f 229/2/94 254/2/94 255/2/94 235/2/94
f 205/2/95 249/2/95 248/2/95 200/2/95
f 170/2/96 242/2/96 241/2/96 165/2/96
f 210/2/97 250/2/97 249/2/97 205/2/97
f 175/2/98 243/2/98 242/2/98 170/2/98
f 215/2/99 251/2/99 250/2/99 210/2/99
f 180/2/100 244/2/100 243/2/100 175/2/100
f 220/2/101 252/2/101 251/2/101 215/2/101
f 185/2/102 245/2/102 244/2/102 180/2/102
f 225/2/103 253/2/103 252/2/103 220/2/103
f 154/2/104 240/2/104 254/2/104 229/2/104
f 160/2/105 154/2/105 156/2/105 163/2/105
f 163/2/106 156/2/106 157/2/106 162/2/106
f 162/2/107 157/2/107 158/2/107 161/2/107
f 161/2/108 158/2/108 155/2/108 159/2/108
f 165/2/109 160/2/109 163/2/109 168/2/109
f 168/2/110 163/2/110 162/2/110 167/2/110
f 167/2/111 162/2/111 161/2/111 166/2/111
f 166/2/112 161/2/112 159/2/112 164/2/112
f 170/2/113 165/2/113 168/2/113 173/2/113
f 173/2/114 168/2/114 167/2/114 172/2/114
f 172/2/115 167/2/115 166/2/115 171/2/115
f 171/2/116 166/2/116 164/2/116 169/2/116
f 175/2/117 170/2/117 173/2/117 178/2/117
f 178/2/118 173/2/118 172/2/118 177/2/118
f 177/2/119 172/2/119 171/2/119 176/2/119
f 176/2/120 171/2/120 169/2/120 174/2/120
f 180/2/121 175/2/121 178/2/121 183/2/121
f 183/2/122 178/2/122 177/2/122 182/2/122
f 182/2/123 177/2/123 176/2/123 181/2/123
f 181/2/124 176/2/124 174/2/124 179/2/124
f 185/2/125 180/2/125 183/2/125 188/2/125
f 188/2/126 183/2/126 182/2/126 187/2/126
f 187/2/127 182/2/127 181/2/127 186/2/127
f 186/2/128 181/2/128 179/2/128 184/2/128
f 190/2/129 185/2/129 188/2/129 193/2/129
f 193/2/130 188/2/130 187/2/130 192/2/130
f 192/2/131 187/2/131 186/2/131 191/2/131
f 191/2/132 186/2/132 184/2/132 189/2/132
f 195/2/133 190/2/133 193/2/133 198/2/133
f 198/2/134 193/2/134 192/2/134 197/2/134
f 197/2/135 192/2/135 191/2/135 196/2/135
f 196/2/136 191/2/136 189/2/136 194/2/136
f 200/2/137 195/2/137 198/2/137 203/2/137
f 203/2/138 198/2/138 197/2/138 202/2/138
f 202/2/139 197/2/139 196/2/139 201/2/139
f 201/2/140 196/2/140 194/2/140 199/2/140
f 205/2/141 200/2/141 203/2/141 208/2/141
f 208/2/142 203/2/142 202/2/142 207/2/142
f 207/2/143 202/2/143 201/2/143 206/2/143
f 206/2/144 201/2/144 199/2/144 204/2/144
f 210/2/145 205/2/145 208/2/145 213/2/145
f 213/2/146 208/2/146 207/2/146 212/2/146
f 212/2/147 207/2/147 206/2/147 211/2/147
f 211/2/148 206/2/148 204/2/148 209/2/148
f 215/2/149 210/2/149 213/2/149 218/2/149
f 218/2/150 213/2/150 212/2/150 217/2/150
f 217/2/151 212/2/151 211/2/151 216/2/151
f 216/2/152 211/2/152 209/2/152 214/2/152
f 220/2/153 215/2/153 218/2/153 223/2/153
f 223/2/154 218/2/154 217/2/154 222/2/154
f 222/2/155 217/2/155 216/2/155 221/2/155
f 221/2/156 216/2/156 214/2/156 219/2/156
f 225/2/157 220/2/157 223/2/157 228/2/157
f 228/2/158 223/2/158 222/2/158 227/2/158
f 227/2/159 222/2/159 221/2/159 226/2/159
f 226/2/160 221/2/160 219/2/160 224/2/160
f 154/2/161 229/2/161 231/2/161 156/2/161
f 156/2/162 231/2/162 232/2/162 157/2/162
f 157/2/163 232/2/163 233/2/163 158/2/163
f 158/2/164 233/2/164 230/2/164 155/2/164
f 235/2/165 225/2/165 228/2/165 238/2/165
f 238/2/166 228/2/166 227/2/166 237/2/166
f 237/2/167 227/2/167 226/2/167 236/2/167
f 236/2/168 226/2/168 224/2/168 234/2/168
f 229/2/169 235/2/169 238/2/169 231/2/169
f 231/2/170 238/2/170 237/2/170 232/2/170
f 232/2/171 237/2/171 236/2/171 233/2/171
f 233/2/172 236/2/172 234/2/172 230/2/172
f 159/2/173 155/2/173 230/2/173 234/2/173 224/2/173 219/2/173 214/2/173 209/2/173 204/2/173 199/2/173 194/2/173 189/2/173 184/2/173 179/2/173 174/2/173 169/2/173 164/2/173
f 256/2/174 257/2/174 240/2/174 239/2/174
f 258/2/174 256/2/174 239/2/174 241/2/174
f 259/2/174 258/2/174 241/2/174 242/2/174
f 260/2/174 259/2/174 242/2/174 243/2/174
f 261/2/174 260/2/174 243/2/174 244/2/174
f 262/2/174 261/2/174 244/2/174 245/2/174
f 263/2/174 262/2/174 245/2/174 246/2/174
f 264/2/174 263/2/174 246/2/174 247/2/174
f 265/2/174 264/2/174 247/2/174 248/2/174
f 266/2/174 265/2/174 248/2/174 249/2/174
f 267/2/174 266/2/174 249/2/174 250/2/174
f 268/2/174 267/2/174 250/2/174 251/2/174
f 269/2/174 268/2/174 251/2/174 252/2/174
f 270/2/174 269/2/174 252/2/174 253/2/174
f 257/2/174 271/2/174 254/2/174 240/2/174
f 272/2/174 270/2/174 253/2/174 255/2/174
f 271/2/174 272/2/174 255/2/174 254/2/174
f 272/2/94 271/2/94 288/2/94 289/2/94
f 305/2/174 306/2/174 289/2/174 288/2/174
usemtl leds
f 260/2/100 261/2/100 278/2/100 277/2/100
f 267/2/99 268/2/99 285/2/99 284/2/99
f 259/2/98 260/2/98 277/2/98 276/2/98
f 266/2/97 267/2/97 284/2/97 283/2/97
f 258/2/96 259/2/96 276/2/96 275/2/96
f 265/2/95 266/2/95 283/2/95 282/2/95
f 256/2/93 258/2/93 275/2/93 273/2/93
f 264/2/92 265/2/92 282/2/92 281/2/92
f 270/2/89 272/2/89 289/2/89 287/2/89
f 257/2/91 256/2/91 273/2/91 274/2/91
f 263/2/90 264/2/90 281/2/90 280/2/90
f 271/2/104 257/2/104 274/2/104 288/2/104
f 262/2/88 263/2/88 280/2/88 279/2/88
f 269/2/103 270/2/103 287/2/103 286/2/103
f 261/2/102 262/2/102 279/2/102 278/2/102
f 268/2/101 269/2/101 286/2/101 285/2/101
f 290/2/174 291/2/174 274/2/174 273/2/174
f 292/2/174 290/2/174 273/2/174 275/2/174
f 293/2/174 292/2/174 275/2/174 276/2/174
f 294/2/174 293/2/174 276/2/174 277/2/174
f 295/2/174 294/2/174 277/2/174 278/2/174
f 296/2/174 295/2/174 278/2/174 279/2/174
f 297/2/174 296/2/174 279/2/174 280/2/174
f 298/2/174 297/2/174 280/2/174 281/2/174
f 299/2/174 298/2/174 281/2/174 282/2/174
f 300/2/174 299/2/174 282/2/174 283/2/174
f 301/2/174 300/2/174 283/2/174 284/2/174
f 302/2/174 301/2/174 284/2/174 285/2/174
f 303/2/174 302/2/174 285/2/174 286/2/174
f 304/2/174 303/2/174 286/2/174 287/2/174
f 291/2/174 305/2/174 288/2/174 274/2/174
f 306/2/174 304/2/174 287/2/174 289/2/174
usemtl Material
f 290/2/174 292/2/174 293/2/174 294/2/174 295/2/174 296/2/174 297/2/174 298/2/174 299/2/174 300/2/174 301/2/174 302/2/174 303/2/174 304/2/174 306/2/174 305/2/174 291/2/174
