# Blender 4.5.3 LTS
# www.blender.org
mtllib circuito.mtl
o Plane
v -3.061756 -0.000000 0.793676
v -3.260691 -0.000000 0.046438
v -3.299176 -0.000000 0.813672
v -3.504947 -0.000000 0.066385
v -3.536752 -0.000000 0.836416
v -3.772416 -0.000000 0.117806
v -3.791806 -0.000000 0.847325
v -4.062244 -0.000000 0.162701
v -3.999766 -0.000000 0.863853
v -4.272785 -0.000000 0.253937
v -4.169518 -0.000000 0.908703
v -4.477698 -0.000000 0.387790
v -4.283119 -0.000000 0.996027
v -4.693733 -0.000000 0.590143
v -4.357095 -0.000000 1.127564
v -4.834715 0.000000 0.866485
v -4.400194 -0.000000 1.297183
v -4.910594 0.000000 1.162342
v -4.423229 -0.000000 1.486863
v -4.952092 0.000000 1.442493
v -4.424983 -0.000000 1.687566
v -4.955064 -0.000000 1.714203
v -4.403248 -0.000000 1.895480
v -4.927502 0.000000 1.978514
v -4.361489 -0.000000 2.105615
v -4.875950 0.000000 2.235544
v -4.297719 0.000000 2.313261
v -4.799952 0.000000 2.484051
v -4.218547 -0.000000 2.515860
v -4.705737 0.000000 2.725927
v -4.124842 -0.000000 2.710987
v -4.592922 0.000000 2.960876
v -4.021613 0.000000 2.888190
v -4.455152 -0.000000 3.193977
v -3.903978 0.000000 3.035308
v -4.276267 -0.000000 3.413992
v -3.758077 0.000000 3.161261
v -4.093019 -0.000000 3.572335
v -3.589857 0.000000 3.270124
v -3.866032 0.000000 3.723633
v -3.401552 0.000000 3.363499
v -3.625887 -0.000000 3.844225
v -3.200465 -0.000000 3.444190
v -3.383575 -0.000000 3.942489
v -2.984450 -0.000000 3.508819
v -3.139958 0.000000 4.016157
v -2.768450 0.000000 3.574276
v -2.895910 0.000000 4.089125
v -2.542037 0.000000 3.618132
v -2.651113 0.000000 4.137530
v -2.314366 0.000000 3.659762
v -2.406067 -0.000000 4.182358
v -2.086609 0.000000 3.701699
v -2.160844 -0.000000 4.226911
v -1.854051 0.000000 3.724863
v -1.915236 -0.000000 4.252017
v -1.621265 -0.000000 3.747610
v -1.669501 -0.000000 4.275997
v -1.388396 -0.000000 3.770515
v -1.423655 -0.000000 4.299817
v -1.154095 -0.000000 3.779735
v -1.177637 -0.000000 4.309906
v -0.919392 -0.000000 3.785808
v -0.931517 0.000000 4.316268
v -0.684606 -0.000000 3.791997
v -0.685302 0.000000 4.322500
v -0.449997 -0.000000 3.789335
v -0.439031 -0.000000 4.319934
v -0.215524 -0.000000 3.779108
v -0.192692 -0.000000 4.309230
v 0.019048 -0.000000 3.768997
v 0.053726 -0.000000 4.298378
v 0.252900 -0.000000 3.753803
v 0.300183 0.000000 4.282440
v 0.484838 -0.000000 3.725863
v 0.546607 -0.000000 4.252881
v 0.716910 0.000000 3.698085
v 0.793109 -0.000000 4.223088
v 0.947873 0.000000 3.666500
v 1.039645 0.000000 4.189297
v 1.173456 0.000000 3.617334
v 1.286026 -0.000000 4.135869
v 1.399272 -0.000000 3.568492
v 1.532456 0.000000 4.081936
v 1.620022 -0.000000 3.510187
v 1.778785 0.000000 4.016691
v 1.831090 -0.000000 3.433894
v 2.024693 0.000000 3.927798
v 2.042822 -0.000000 3.358510
v 2.270308 -0.000000 3.837411
v 2.223427 -0.000000 3.251637
v 2.512845 -0.000000 3.696272
v 2.402340 0.000000 3.143409
v 2.752033 -0.000000 3.541536
v 2.522361 -0.000000 2.998195
v 2.953356 0.000000 3.307565
v 2.622706 -0.000000 2.843637
v 3.116758 0.000000 3.039247
v 2.659158 -0.000000 2.659924
v 3.185058 0.000000 2.727843
v 2.660155 -0.000000 2.479924
v 3.186329 -0.000000 2.409153
v 2.621893 -0.000000 2.301483
v 3.109930 -0.000000 2.091229
v 2.512366 -0.000000 2.141150
v 2.941222 -0.000000 1.829018
v 2.372459 -0.000000 1.991529
v 2.744852 -0.000000 1.613223
v 2.211345 -0.000000 1.849498
v 2.533469 -0.000000 1.427457
v 2.020562 -0.000000 1.724701
v 2.316535 -0.000000 1.284247
v 1.825536 -0.000000 1.601895
v 2.099790 -0.000000 1.147515
v 1.619893 -0.000000 1.485321
v 1.885437 -0.000000 1.025892
v 1.411508 -0.000000 1.367742
v 1.674816 -0.000000 0.907029
v 1.199898 -0.000000 1.249043
v 1.469180 -0.000000 0.791729
v 0.988710 -0.000000 1.121739
v 1.273231 -0.000000 0.673849
v 0.778111 -0.000000 0.988307
v 1.084244 0.000000 0.554638
v 0.575379 -0.000000 0.830785
v 0.919052 -0.000000 0.426409
v 0.378929 -0.000000 0.660923
v 0.763969 -0.000000 0.296431
v 0.210561 -0.000000 0.446638
v 0.654474 0.000000 0.155289
v 0.083088 -0.000000 0.203146
v 0.577417 0.000000 0.010783
v -0.002917 -0.000000 -0.065065
v 0.522118 -0.000000 -0.135782
v 0.009196 -0.000000 -0.343248
v 0.538102 0.000000 -0.299233
v 0.056851 -0.000000 -0.613007
v 0.564030 -0.000000 -0.458661
v 0.163945 -0.000000 -0.866603
v 0.630232 0.000000 -0.612463
v 0.314684 -0.000000 -1.095745
v 0.708806 0.000000 -0.741247
v 0.531097 0.000000 -1.285028
v 0.811752 0.000000 -0.833857
v 0.788777 -0.000000 -1.385583
v 0.954506 -0.000000 -0.881659
v 1.053823 -0.000000 -1.442991
v 1.115490 -0.000000 -0.916454
v 1.313905 -0.000000 -1.446419
v 1.310889 0.000000 -0.915751
v 1.566121 0.000000 -1.429260
v 1.519148 -0.000000 -0.900923
v 1.812184 -0.000000 -1.396916
v 1.738652 0.000000 -0.871390
v 2.051757 0.000000 -1.357341
v 1.968940 0.000000 -0.833326
v 2.288659 -0.000000 -1.314834
v 2.204187 -0.000000 -0.791068
v 2.520578 -0.000000 -1.279683
v 2.454985 0.000000 -0.753229
v 2.753957 -0.000000 -1.243212
v 2.710161 -0.000000 -0.717256
v 3.017582 -0.000000 -1.230709
v 3.010263 0.000000 -0.701126
v 3.346466 -0.000000 -1.243770
v 3.353431 0.000000 -0.697773
v 3.706888 -0.000000 -1.300735
v 3.840592 -0.000000 -0.772381
v 4.013663 0.000000 -1.471740
v 4.407302 0.000000 -1.058435
v 4.243944 -0.000000 -1.714255
v 4.855916 -0.000000 -1.468720
v 4.420445 -0.000000 -1.961513
v 5.128891 0.000000 -1.916839
v 4.442138 -0.000000 -2.222733
v 5.183335 -0.000000 -2.286884
v 4.410306 -0.000000 -2.485937
v 5.148633 0.000000 -2.601018
v 4.377056 0.000000 -2.747029
v 5.114824 -0.000000 -2.905782
v 4.321517 -0.000000 -3.001939
v 5.065442 0.000000 -3.177639
v 4.281317 0.000000 -3.240583
v 5.027128 -0.000000 -3.436173
v 4.231386 -0.000000 -3.467275
v 4.970931 0.000000 -3.694071
v 4.172067 -0.000000 -3.691681
v 4.901759 0.000000 -3.951573
v 4.094529 -0.000000 -3.906946
v 4.809002 -0.000000 -4.210063
v 4.004468 -0.000000 -4.117557
v 4.693701 -0.000000 -4.468482
v 3.844378 -0.000000 -4.314450
v 4.476967 -0.000000 -4.770340
v 3.590500 -0.000000 -4.456112
v 4.107832 -0.000000 -5.105989
v 3.265249 -0.000000 -4.499105
v 3.578795 -0.000000 -5.249562
v 2.923589 -0.000000 -4.569085
v 3.050836 -0.000000 -5.349476
v 2.572038 -0.000000 -4.515521
v 2.580657 -0.000000 -5.289107
v 2.298220 -0.000000 -4.497939
v 2.253003 -0.000000 -5.177592
v 2.067377 -0.000000 -4.452637
v 1.969634 -0.000000 -5.072475
v 1.827351 -0.000000 -4.364042
v 1.675272 -0.000000 -4.923556
v 1.596439 -0.000000 -4.262151
v 1.394020 -0.000000 -4.782454
v 1.380951 -0.000000 -4.169860
v 1.153306 -0.000000 -4.667087
v 1.172087 -0.000000 -4.065215
v 0.937256 -0.000000 -4.552778
v 0.961631 -0.000000 -3.958224
v 0.727877 -0.000000 -4.439398
v 0.744377 -0.000000 -3.854635
v 0.518992 -0.000000 -4.334990
v 0.525839 -0.000000 -3.753314
v 0.304231 -0.000000 -4.235434
v 0.306831 0.000000 -3.653512
v 0.087996 -0.000000 -4.136900
v 0.087561 -0.000000 -3.554787
v -0.129562 -0.000000 -4.038948
v -0.131795 -0.000000 -3.456712
v -0.348201 -0.000000 -3.941188
v -0.351102 -0.000000 -3.358825
v -0.567493 -0.000000 -3.843308
v -0.570286 -0.000000 -3.260856
v -0.787123 -0.000000 -3.745143
v -0.789310 -0.000000 -3.162638
v -1.006876 -0.000000 -3.646599
v -1.008137 -0.000000 -3.064046
v -1.226606 -0.000000 -3.547592
v -1.225505 -0.000000 -2.965555
v -1.453467 -0.000000 -3.444612
v -1.437791 -0.000000 -2.860317
v -1.685680 -0.000000 -3.329422
v -1.647851 -0.000000 -2.751841
v -1.920018 -0.000000 -3.207017
v -1.839465 0.000000 -2.622222
v -2.163828 -0.000000 -3.041941
v -2.008888 -0.000000 -2.474115
v -2.409394 -0.000000 -2.822153
v -2.125668 -0.000000 -2.296416
v -2.623355 -0.000000 -2.480250
v -2.149044 0.000000 -2.094638
v -2.673304 0.000000 -2.015644
v -2.070386 -0.000000 -1.893462
v -2.534004 0.000000 -1.634565
v -1.935911 0.000000 -1.706322
v -2.357267 -0.000000 -1.384038
v -1.780718 0.000000 -1.527613
v -2.273768 0.000000 -1.310021
v -1.620533 -0.000000 -1.352375
v -2.173311 -0.000000 -1.218465
v -1.461574 0.000000 -1.168881
v -2.031236 0.000000 -1.055092
v -1.315358 -0.000000 -0.972206
v -1.915700 0.000000 -0.900977
v -1.194565 0.000000 -0.757300
v -1.829057 -0.000000 -0.746886
v -1.106858 -0.000000 -0.526505
v -1.769467 -0.000000 -0.587155
v -1.049242 -0.000000 -0.286431
v -1.730083 -0.000000 -0.425373
v -1.037730 -0.000000 -0.038017
v -1.723526 -0.000000 -0.285666
v -1.085028 -0.000000 0.208626
v -1.739569 -0.000000 -0.190715
v -1.234527 -0.000000 0.458397
v -1.771860 -0.000000 -0.128379
v -1.544743 -0.000000 0.647509
v -1.842693 -0.000000 -0.081660
v -1.812106 -0.000000 0.700624
v -2.033501 -0.000000 -0.044371
v -2.053896 -0.000000 0.715312
v -2.241110 -0.000000 -0.032705
v -2.293679 -0.000000 0.728619
v -2.480682 -0.000000 -0.019442
v -2.533184 -0.000000 0.743438
v -2.723590 -0.000000 -0.004437
v -2.772587 -0.000000 0.759908
v -2.966488 -0.000000 0.012278
vn -0.0000 1.0000 -0.0000
vt 0.000000 0.000000
vt 1.000000 0.000000
vt 1.000000 1.000000
vt 0.000000 1.000000
s 0
f 1/1/1 2/2/1 4/3/1 3/4/1
f 3/1/1 4/2/1 6/3/1 5/4/1
f 5/1/1 6/2/1 8/3/1 7/4/1
f 7/1/1 8/2/1 10/3/1 9/4/1
f 9/1/1 10/2/1 12/3/1 11/4/1
f 11/1/1 12/2/1 14/3/1 13/4/1
f 13/1/1 14/2/1 16/3/1 15/4/1
f 15/1/1 16/2/1 18/3/1 17/4/1
f 17/1/1 18/2/1 20/3/1 19/4/1
f 19/1/1 20/2/1 22/3/1 21/4/1
f 21/1/1 22/2/1 24/3/1 23/4/1
f 23/1/1 24/2/1 26/3/1 25/4/1
f 25/1/1 26/2/1 28/3/1 27/4/1
f 27/1/1 28/2/1 30/3/1 29/4/1
f 29/1/1 30/2/1 32/3/1 31/4/1
f 31/1/1 32/2/1 34/3/1 33/4/1
f 33/1/1 34/2/1 36/3/1 35/4/1
f 35/1/1 36/2/1 38/3/1 37/4/1
f 37/1/1 38/2/1 40/3/1 39/4/1
f 39/1/1 40/2/1 42/3/1 41/4/1
f 41/1/1 42/2/1 44/3/1 43/4/1
f 43/1/1 44/2/1 46/3/1 45/4/1
f 45/1/1 46/2/1 48/3/1 47/4/1
f 47/1/1 48/2/1 50/3/1 49/4/1
f 49/1/1 50/2/1 52/3/1 51/4/1
f 51/1/1 52/2/1 54/3/1 53/4/1
f 53/1/1 54/2/1 56/3/1 55/4/1
f 55/1/1 56/2/1 58/3/1 57/4/1
f 57/1/1 58/2/1 60/3/1 59/4/1
f 59/1/1 60/2/1 62/3/1 61/4/1
f 61/1/1 62/2/1 64/3/1 63/4/1
f 63/1/1 64/2/1 66/3/1 65/4/1
f 65/1/1 66/2/1 68/3/1 67/4/1
f 67/1/1 68/2/1 70/3/1 69/4/1
f 69/1/1 70/2/1 72/3/1 71/4/1
f 71/1/1 72/2/1 74/3/1 73/4/1
f 73/1/1 74/2/1 76/3/1 75/4/1
f 75/1/1 76/2/1 78/3/1 77/4/1
f 77/1/1 78/2/1 80/3/1 79/4/1
f 79/1/1 80/2/1 82/3/1 81/4/1
f 81/1/1 82/2/1 84/3/1 83/4/1
f 83/1/1 84/2/1 86/3/1 85/4/1
f 85/1/1 86/2/1 88/3/1 87/4/1
f 87/1/1 88/2/1 90/3/1 89/4/1
f 89/1/1 90/2/1 92/3/1 91/4/1
f 91/1/1 92/2/1 94/3/1 93/4/1
f 93/1/1 94/2/1 96/3/1 95/4/1
f 95/1/1 96/2/1 98/3/1 97/4/1
f 97/1/1 98/2/1 100/3/1 99/4/1
f 99/1/1 100/2/1 102/3/1 101/4/1
f 101/1/1 102/2/1 104/3/1 103/4/1
f 103/1/1 104/2/1 106/3/1 105/4/1
f 105/1/1 106/2/1 108/3/1 107/4/1
f 107/1/1 108/2/1 110/3/1 109/4/1
f 109/1/1 110/2/1 112/3/1 111/4/1
f 111/1/1 112/2/1 114/3/1 113/4/1
f 113/1/1 114/2/1 116/3/1 115/4/1
f 115/1/1 116/2/1 118/3/1 117/4/1
f 117/1/1 118/2/1 120/3/1 119/4/1
f 119/1/1 120/2/1 122/3/1 121/4/1
f 121/1/1 122/2/1 124/3/1 123/4/1
f 123/1/1 124/2/1 126/3/1 125/4/1
f 125/1/1 126/2/1 128/3/1 127/4/1
f 127/1/1 128/2/1 130/3/1 129/4/1
f 129/1/1 130/2/1 132/3/1 131/4/1
f 131/1/1 132/2/1 134/3/1 133/4/1
f 133/1/1 134/2/1 136/3/1 135/4/1
f 135/1/1 136/2/1 138/3/1 137/4/1
f 137/1/1 138/2/1 140/3/1 139/4/1
f 139/1/1 140/2/1 142/3/1 141/4/1
f 141/1/1 142/2/1 144/3/1 143/4/1
f 143/1/1 144/2/1 146/3/1 145/4/1
f 145/1/1 146/2/1 148/3/1 147/4/1
f 147/1/1 148/2/1 150/3/1 149/4/1
f 149/1/1 150/2/1 152/3/1 151/4/1
f 151/1/1 152/2/1 154/3/1 153/4/1
f 153/1/1 154/2/1 156/3/1 155/4/1
f 155/1/1 156/2/1 158/3/1 157/4/1
f 157/1/1 158/2/1 160/3/1 159/4/1
f 159/1/1 160/2/1 162/3/1 161/4/1
f 161/1/1 162/2/1 164/3/1 163/4/1
f 163/1/1 164/2/1 166/3/1 165/4/1
f 165/1/1 166/2/1 168/3/1 167/4/1
f 167/1/1 168/2/1 170/3/1 169/4/1
f 169/1/1 170/2/1 172/3/1 171/4/1
f 171/1/1 172/2/1 174/3/1 173/4/1
f 173/1/1 174/2/1 176/3/1 175/4/1
f 175/1/1 176/2/1 178/3/1 177/4/1
f 177/1/1 178/2/1 180/3/1 179/4/1
f 179/1/1 180/2/1 182/3/1 181/4/1
f 181/1/1 182/2/1 184/3/1 183/4/1
f 183/1/1 184/2/1 186/3/1 185/4/1
f 185/1/1 186/2/1 188/3/1 187/4/1
f 187/1/1 188/2/1 190/3/1 189/4/1
f 189/1/1 190/2/1 192/3/1 191/4/1
f 191/1/1 192/2/1 194/3/1 193/4/1
f 193/1/1 194/2/1 196/3/1 195/4/1
f 195/1/1 196/2/1 198/3/1 197/4/1
f 197/1/1 198/2/1 200/3/1 199/4/1
f 199/1/1 200/2/1 202/3/1 201/4/1
f 201/1/1 202/2/1 204/3/1 203/4/1
f 203/1/1 204/2/1 206/3/1 205/4/1
f 205/1/1 206/2/1 208/3/1 207/4/1
f 207/1/1 208/2/1 210/3/1 209/4/1
f 209/1/1 210/2/1 212/3/1 211/4/1
f 211/1/1 212/2/1 214/3/1 213/4/1
f 213/1/1 214/2/1 216/3/1 215/4/1
f 215/1/1 216/2/1 218/3/1 217/4/1
f 217/1/1 218/2/1 220/3/1 219/4/1
f 219/1/1 220/2/1 222/3/1 221/4/1
f 221/1/1 222/2/1 224/3/1 223/4/1
f 223/1/1 224/2/1 226/3/1 225/4/1
f 225/1/1 226/2/1 228/3/1 227/4/1
f 227/1/1 228/2/1 230/3/1 229/4/1
f 229/1/1 230/2/1 232/3/1 231/4/1
f 231/1/1 232/2/1 234/3/1 233/4/1
f 233/1/1 234/2/1 236/3/1 235/4/1
f 235/1/1 236/2/1 238/3/1 237/4/1
f 237/1/1 238/2/1 240/3/1 239/4/1
f 239/1/1 240/2/1 242/3/1 241/4/1
f 241/1/1 242/2/1 244/3/1 243/4/1
f 243/1/1 244/2/1 246/3/1 245/4/1
f 245/1/1 246/2/1 248/3/1 247/4/1
f 247/1/1 248/2/1 250/3/1 249/4/1
f 249/1/1 250/2/1 252/3/1 251/4/1
f 251/1/1 252/2/1 254/3/1 253/4/1
f 253/1/1 254/2/1 256/3/1 255/4/1
f 255/1/1 256/2/1 258/3/1 257/4/1
f 257/1/1 258/2/1 260/3/1 259/4/1
f 259/1/1 260/2/1 262/3/1 261/4/1
f 261/1/1 262/2/1 264/3/1 263/4/1
f 263/1/1 264/2/1 266/3/1 265/4/1
f 265/1/1 266/2/1 268/3/1 267/4/1
f 267/1/1 268/2/1 270/3/1 269/4/1
f 269/1/1 270/2/1 272/3/1 271/4/1
f 271/1/1 272/2/1 274/3/1 273/4/1
f 273/1/1 274/2/1 276/3/1 275/4/1
f 275/1/1 276/2/1 278/3/1 277/4/1
f 277/1/1 278/2/1 280/3/1 279/4/1
f 279/1/1 280/2/1 282/3/1 281/4/1
f 281/1/1 282/2/1 284/3/1 283/4/1
f 1/1/1 283/4/1 284/3/1 2/2/1
